<svg width="26" height="24" viewBox="0 0 26 24" fill="none" xmlns="http://www.w3.org/2000/svg">
<path d="M14.066 3.26878V3.202C14.066 2.89037 14.1662 2.61213 14.3665 2.36728C14.5669 2.12243 14.8229 2 15.1345 2C15.4462 2 15.7245 2.10017 15.9694 2.3005C16.2143 2.50083 16.3478 2.76795 16.3701 3.10184C16.3923 3.43573 16.2922 3.71397 16.0695 3.93656C15.8469 4.15915 15.5798 4.27045 15.2681 4.27045L15.0678 4.33723L15.1345 4.4374L15.0678 4.80467L14.9342 5.87312C14.9787 5.91764 15.001 5.96216 15.001 6.00668L14.8674 6.67446C14.8229 6.76349 14.7784 6.83027 14.7338 6.87479L14.667 7.1419C14.578 7.49805 14.5001 7.78742 14.4333 8.01002C14.3665 8.23261 14.3109 8.41068 14.2663 8.54424V8.6778C14.2218 8.90039 14.1884 9.07846 14.1662 9.21202C14.1439 9.34558 14.066 9.56817 13.9324 9.8798C13.8434 10.0579 13.8434 10.3472 13.9324 10.7479L13.9992 10.8147C13.9992 10.9482 14.0548 11.1041 14.1662 11.2821C14.2775 11.4602 14.3331 11.616 14.3331 11.7496C14.3776 12.64 14.3109 13.3968 14.1328 14.02L14.2663 14.4207C14.8006 14.6878 14.9565 14.9772 14.7338 15.2888L15.0678 15.4224C15.602 15.6895 15.9805 15.9232 16.2031 16.1235C16.4257 16.3239 16.6484 16.5353 16.871 16.7579C17.0491 16.8024 17.1826 16.8692 17.2717 16.9583L17.4721 17.025C18.4071 17.6483 19.3421 18.4051 20.2771 19.2955L20.5442 19.4958V19.5626L20.4774 19.6962L20.6778 19.8297H20.7446C20.8781 19.9188 20.9672 19.9633 21.0117 19.9633H21.0785C21.123 19.9633 21.1675 19.941 21.2121 19.8965L21.3456 19.8297C21.4347 19.7407 21.5237 19.6739 21.6128 19.6294H21.8799C21.9244 19.6294 21.9244 19.6516 21.8799 19.6962L21.6128 19.8297L21.2788 20.2304H21.7463L22.2138 20.2972C22.3474 20.2526 22.4587 20.2081 22.5478 20.1636L22.8817 19.9633C23.0153 19.9188 23.1488 19.9633 23.2824 20.0968H23.3492C23.3937 20.1413 23.3715 20.2081 23.2824 20.2972L22.481 21.0317C22.2584 21.2098 22.058 21.3211 21.8799 21.3656L21.0117 21.9666C20.9672 22.0111 20.9227 22.0111 20.8781 21.9666L20.6778 21.6995L20.5442 21.4324L20.3772 21.1987L20.1769 20.9316L20.0099 20.7312L19.8763 20.5643L19.6092 20.3639C19.5202 20.3639 19.4311 20.3417 19.3421 20.2972L18.4738 19.6294C18.3403 19.6294 18.1844 19.5626 18.0063 19.429C17.3385 18.8503 16.8932 18.4942 16.6706 18.3606L16.2699 18.0935L15.4685 17.9599C15.2013 17.9154 14.8451 17.7819 14.3999 17.5593L13.8656 17.2922C13.5094 17.1141 13.2645 17.025 13.131 17.025L12.8638 16.8915C12.6857 16.847 12.5522 16.8024 12.4631 16.7579L12.3295 16.6244C12.2405 16.6244 12.1514 16.6466 12.0624 16.6912L10.7267 17.3589L9.05704 18.0935C8.6118 18.4496 8.18882 18.739 7.78811 18.9616L7.05346 19.2955L5.9181 20.0968C5.82905 20.1859 5.74001 20.1859 5.65096 20.0968L5.51739 20.2304C5.38382 20.2749 5.29477 20.2972 5.25024 20.2972L4.9831 20.4307V20.5643H4.84953L4.71596 20.7646C4.62691 20.9427 4.53786 21.0428 4.44881 21.0651C4.35977 21.0874 4.30411 21.1208 4.28185 21.1653C4.25959 21.2098 4.23733 21.2432 4.21506 21.2654L4.08149 21.399L3.88113 21.5326L3.5806 21.4992L3.17988 21.5659L2.91274 21.6327C2.69012 21.6772 2.51202 21.6438 2.37845 21.5326C2.24488 21.4213 2.13357 21.2543 2.04452 21.0317C1.95548 20.8982 2 20.7869 2.1781 20.6978L2.24488 20.6311C2.28941 20.5865 2.35619 20.5643 2.44524 20.5643H2.84595L3.38024 20.3639L3.64738 20.2972C3.64738 20.2081 3.66965 20.1413 3.71417 20.0968C3.75869 20.0523 3.82548 20.03 3.91453 20.03V19.9633C3.87 19.8742 3.84774 19.7852 3.84774 19.6962C3.80322 19.6071 3.79209 19.5403 3.81435 19.4958C3.83661 19.4513 3.85887 19.429 3.88113 19.429H3.91453L3.98131 19.6294C4.02584 19.852 4.09262 19.9188 4.18167 19.8297L4.24846 19.6962C4.29298 19.6071 4.35977 19.5626 4.44881 19.5626L4.58239 19.6962L4.71596 19.5626L4.64917 19.4958C4.64917 19.4513 4.67143 19.429 4.71596 19.429L4.9831 19.1619C5.20572 18.8948 5.47286 18.65 5.78453 18.4274C6.40787 17.9377 7.07572 17.5593 7.78811 17.2922C8.01073 17.0696 8.25561 16.9583 8.52275 16.9583C8.70085 16.6466 8.96799 16.3127 9.32418 15.9566C9.63585 15.734 9.85847 15.5782 9.99204 15.4891C10.0811 15.3111 10.1924 15.222 10.326 15.222H10.3928L10.5263 15.0885C10.6154 15.044 10.6822 14.9994 10.7267 14.9549V14.621C10.7267 14.3984 10.7489 14.2204 10.7935 14.0868C10.838 13.9533 10.9493 13.8865 11.1274 13.8865L11.3945 13.6194C11.3055 13.4413 11.261 13.241 11.261 13.0184H11.1942C11.1051 12.8848 11.0606 12.7513 11.0606 12.6177C10.927 12.3951 10.838 12.217 10.7935 12.0835H10.5931C10.5486 12.217 10.4373 12.3061 10.2592 12.3506L10.1924 12.4841C10.0143 12.7958 9.85847 13.0295 9.7249 13.1853C9.59132 13.3411 9.34644 13.5303 8.99025 13.7529C8.76763 13.9755 8.6118 14.2204 8.52275 14.4875C8.47823 14.621 8.47823 14.7546 8.52275 14.8881L8.45596 15.0217H8.52275C8.52275 15.1107 8.54501 15.1553 8.58954 15.1553H8.65632C8.74537 15.1998 8.78989 15.2554 8.78989 15.3222C8.78989 15.389 8.72311 15.4112 8.58954 15.389C8.45596 15.3667 8.35579 15.3222 8.289 15.2554C8.22221 15.1886 8.16656 15.1553 8.12204 15.1553L7.92168 15.3556C7.83263 15.4891 7.74358 15.5448 7.65453 15.5225C7.56549 15.5003 7.54322 15.4669 7.58775 15.4224L7.65453 15.3556C7.69906 15.2666 7.69906 15.222 7.65453 15.222L7.12025 15.3556C7.07572 15.4001 7.02007 15.4001 6.95328 15.3556C6.8865 15.3111 6.89763 15.2666 6.98668 15.222L7.32061 15.0885C7.32061 15.044 7.29834 15.0217 7.25382 15.0217C7.07572 15.1107 6.89763 15.133 6.71953 15.0885L6.3856 15.0217L6.31882 14.9549C6.31882 14.9104 6.34108 14.8881 6.3856 14.8881C6.5637 14.9327 6.78632 14.9104 7.05346 14.8214L7.52096 14.621L8.05525 14.02L8.12204 13.8865C8.30013 13.5303 8.48936 13.2076 8.68971 12.9182C8.89007 12.6288 9.10156 12.3951 9.32418 12.217L9.39097 11.9499C9.48001 11.7718 9.56906 11.616 9.65811 11.4825C9.74716 11.3489 9.85847 11.1708 9.99204 10.9482L10.1924 10.6811C10.3705 10.414 10.5708 10.2805 10.7935 10.2805L10.9938 10.0801C11.0384 10.0356 11.0606 9.96884 11.0606 9.8798L11.1942 9.74624L11.1274 9.67947C10.8603 9.45687 10.7267 9.25654 10.7267 9.07846C10.6822 8.76683 10.7823 8.49972 11.0272 8.27713C11.2721 8.05454 11.517 7.95437 11.7619 7.97663C12.0067 7.99889 12.196 8.07679 12.3295 8.21035L12.4631 8.34391C12.5076 8.34391 12.5299 8.36617 12.5299 8.41068L12.797 8.54424V8.74457C12.8861 8.83361 12.9306 8.90039 12.9306 8.94491C13.0197 8.81135 13.1532 8.65554 13.3313 8.47746L13.6653 7.40901C13.6653 7.23094 13.7098 7.05287 13.7988 6.87479L13.9324 6.67446V6.5409L14.1328 5.73957H14.2663L14.4667 4.93823C14.5112 4.80467 14.5112 4.64886 14.4667 4.47078L14.1995 3.803L14.066 3.26878Z" fill="#111111"/>
</svg>
